# xmcd
#
# Track frame offsets: 
#        150
#        18190
#        36610
#        58035
#        77645
#        96680
#        122515
#        144475
#        167592
#        187325
#
# Disc length: 3133 seconds
#
# Revision: 0
# Processed by: cddbd v1.5.2PL0 Copyright (c) Steve Scherf et al.
# Submitted via: ExactAudioCopy v1.0b3
#
DISCID=8c0c3b0a
DTITLE=สุรสีห์ อิทธิกุล - Project Album
DYEAR=2000
DGENRE=Pop
TTITLE0=เรื่องธรรมดา
TTITLE1=ยอมจำนน
TTITLE2=เปลวไฟในห่าฝน
TTITLE3=สายน้ำ
TTITLE4=สวรรค์
TTITLE5=ไม่เคยเปลี่ยน
TTITLE6=เหม่อ
TTITLE7=คุ้มกันไหม
TTITLE8=สูงสุดฟ้า
TTITLE9=ตน
EXTD=
EXTT0=
EXTT1=
EXTT2=
EXTT3=
EXTT4=
EXTT5=
EXTT6=
EXTT7=
EXTT8=
EXTT9=
PLAYORDER=
